<svg width="352" height="79" viewBox="0 0 352 79" fill="none" xmlns="http://www.w3.org/2000/svg">
<g clip-path="url(#clip0_52_3)">
<path d="M16.6848 11.4054C18.3382 4.70672 24.348 0 31.2477 0H330.044C340.464 0 347.71 10.3644 344.131 20.1515L330.462 57.5313C328.369 63.2572 323.017 67.1461 316.925 67.3697L19.8804 78.2704C9.91909 78.636 2.37863 69.3635 4.76741 59.6859L16.6848 11.4054Z" fill="#FC3C2B"/>
<path fill-rule="evenodd" clip-rule="evenodd" d="M330.518 57.3808L329.309 60.6875C327.913 64.5048 324.345 67.0974 320.284 67.2465L13.2539 78.5136C6.61301 78.7573 1.58603 72.5757 3.17855 66.1239L4.98537 58.804C13.2865 61.2623 23.2944 63 35.0003 63C40.5307 63 49.6775 61.5984 60.0629 60.007C73.7012 57.9171 89.4755 55.5 102 55.5C119.766 55.5 128.657 57.9749 137.593 60.4623C146.619 62.9748 155.691 65.5 174 65.5C189.156 65.5 204.691 62.5843 219.096 59.8805C229.712 57.8881 239.714 56.0107 248.5 55.5C264.507 54.5694 279.018 55.968 291.81 57.2008C302.436 58.2248 311.876 59.1345 320 58.5C323.753 58.2069 327.255 57.826 330.518 57.3808Z" fill="#FFFAFA"/>
</g>
<defs>
<clipPath id="clip0_52_3">
<rect width="351.5" height="79" fill="white"/>
</clipPath>
</defs>
</svg>
