<svg width="360" height="100" viewBox="0 0 360 100" fill="none" xmlns="http://www.w3.org/2000/svg">
<path d="M20.6848 21.4054C22.3382 14.7067 28.348 10 35.2477 10H334.044C344.464 10 351.71 20.3644 348.131 30.1515L334.462 67.5313C332.369 73.2572 327.017 77.1461 320.925 77.3697L23.8804 88.2704C13.9191 88.636 6.37863 79.3635 8.76741 69.6859L20.6848 21.4054Z" fill="#035F46"/>
<path fill-rule="evenodd" clip-rule="evenodd" d="M334.517 67.3808L333.308 70.6875C331.912 74.5048 328.345 77.0974 324.283 77.2465L17.2534 88.5136C10.6125 88.7573 5.58554 82.5757 7.17806 76.1239L8.98488 68.804C17.286 71.2623 27.2939 73 38.9998 73C44.5302 73 53.677 71.5984 64.0624 70.007C77.7007 67.9171 93.475 65.5 106 65.5C123.765 65.5 132.656 67.9749 141.592 70.4623C150.618 72.9748 159.69 75.5 178 75.5C193.156 75.5 208.69 72.5843 223.096 69.8805C233.711 67.8881 243.714 66.0107 252.5 65.5C268.506 64.5694 283.018 65.968 295.81 67.2008C306.436 68.2248 315.875 69.1345 324 68.5C327.752 68.2069 331.255 67.826 334.517 67.3808Z" fill="#FFFAFA"/>
</svg>
