<svg width="59" height="37" viewBox="0 0 59 37" fill="none" xmlns="http://www.w3.org/2000/svg">
<path d="M2.95015 3.50708C3.14832 1.54743 4.85733 0.0931517 6.82344 0.211119L54.9327 3.09767C56.8718 3.21402 58.3848 4.82051 58.3848 6.76308V32.7852C58.3848 34.9129 56.582 36.5953 54.4593 36.4484L3.78128 32.9424C1.71262 32.7993 0.172719 30.9728 0.381346 28.9097L2.95015 3.50708Z" fill="#FFFAFA"/>
<path d="M19.9805 12.1192C18.8637 10.9738 18.7773 9.17513 19.7791 7.92791V7.92791C20.969 6.44655 23.1868 6.34018 24.513 7.70087L41.4331 25.0612C42.4944 26.15 42.6306 27.84 41.7575 29.0848V29.0848C40.6196 30.7071 38.2871 30.8953 36.9037 29.4765L19.9805 12.1192Z" fill="#FC412D"/>
<path d="M36.4044 8.55841C37.8155 7.14734 40.1422 7.28547 41.3764 8.85357V8.85357C42.3899 10.1412 42.3161 11.9748 41.2025 13.1768L26.5542 28.9877C25.3156 30.3245 23.284 30.5507 21.7817 29.5189L21.665 29.4388C19.772 28.1387 19.5235 25.4394 21.1474 23.8154L36.4044 8.55841Z" fill="#FC412D"/>
</svg>
