<svg width="69" height="61" viewBox="0 0 69 61" fill="none" xmlns="http://www.w3.org/2000/svg">
<path d="M3.9406 16.1281C3.60352 13.3811 5.56204 10.8828 8.31008 10.5544L55.1252 4.95982C57.7146 4.65039 60.1069 6.38295 60.6206 8.93962L67.594 43.6484C68.1734 46.5325 66.1501 49.2911 63.2253 49.6048L13.6617 54.9215C10.9456 55.2128 8.49837 53.2704 8.16566 50.559L3.9406 16.1281Z" fill="#FFFAFA"/>
<path d="M22.8829 34.9589C20.7117 34.9238 18.9195 33.2511 18.7349 31.0876V31.0876C18.5217 28.5898 20.5143 26.4552 23.0208 26.4964L46.5456 26.8826C48.6324 26.9168 50.3822 28.4683 50.6661 30.536V30.536C51.0185 33.1038 48.9993 35.3817 46.4078 35.3397L22.8829 34.9589Z" fill="#035F46"/>
<path d="M30.3364 18.3032C30.3364 15.6941 32.5982 13.6605 35.1926 13.9371V13.9371C37.354 14.1674 39.0216 15.9444 39.1142 18.116L40.1512 42.4179C40.257 44.8962 38.4975 47.0641 36.0504 47.4705V47.4705C33.0587 47.9674 30.3364 45.6599 30.3364 42.6272L30.3364 18.3032Z" fill="#035F46"/>
</svg>
